<?xml version="1.0" encoding="UTF-8"?>
<svg id="Layer_2" data-name="Layer 2" xmlns="http://www.w3.org/2000/svg" viewBox="0 0 33.94 24.67">
  <defs>
    <style>
      .cls-1 {
        fill: #231f20;
        stroke-width: 0px;
      }
    </style>
  </defs>
  <g id="Layer_1-2" data-name="Layer 1">
    <g>
      <path class="cls-1" d="M10.88,3.72c-.2-.55-.58-.82-1.14-.82s-.93.27-1.13.82l-2.65,7.15c-.07.19-.09.38-.04.56.04.18.13.32.26.43s.3.16.51.16c.4,0,.67-.23.82-.68l.66-1.9h3.17l.66,1.9c.15.45.42.68.82.68.22,0,.39-.05.52-.16s.22-.25.26-.43c.04-.18.02-.36-.05-.56l-2.66-7.15ZM8.61,8.11l1.14-3.32,1.14,3.32h-2.28Z"/>
      <g>
        <path class="cls-1" d="M24.01,11.46c-1.62,0-2.94,1.32-2.94,2.94s1.32,2.94,2.94,2.94,2.94-1.32,2.94-2.94-1.32-2.94-2.94-2.94ZM26.27,14.73s0,.09-.02.13c-.26.96-1.17,1.63-2.23,1.63s-1.97-.68-2.23-1.63c0-.04-.02-.09-.02-.13,0-.25.2-.49.49-.49.22,0,.41.15.47.36.14.51.65.91,1.29.91s1.15-.4,1.29-.91c.06-.22.25-.36.47-.36.29,0,.49.24.49.49Z"/>
        <path class="cls-1" d="M33.38,7.5c-.37-.66-.9-1.17-1.57-1.53-.68-.35-1.47-.53-2.37-.53h-9.95v-.98c0-.94-.18-1.75-.54-2.41-.36-.66-.88-1.17-1.55-1.53-.67-.35-1.48-.53-2.42-.53H4.51c-.91,0-1.7.18-2.37.53-.68.35-1.2.86-1.57,1.53-.37.66-.56,1.47-.56,2.41v6.37c0,.94.19,1.74.56,2.4.37.66.9,1.17,1.57,1.52.68.35,1.47.53,2.37.53h.44v2.59c0,.41.1.74.3.98.2.24.49.37.86.37.27,0,.51-.07.72-.22.22-.14.49-.36.81-.64l3.6-3.08h3.21v.99c0,.94.18,1.75.53,2.41.36.67.87,1.17,1.55,1.52.68.35,1.48.52,2.43.52h3.71l3.61,3.08c.32.28.59.49.81.64.22.14.46.22.72.22.37,0,.65-.12.85-.37.2-.24.3-.57.3-.98v-2.59h.45c.91,0,1.7-.18,2.37-.53.68-.35,1.2-.86,1.57-1.52.37-.66.56-1.46.56-2.4v-6.37c0-.94-.19-1.75-.56-2.41ZM17.74,5.57c-.44.09-.84.22-1.2.41-.68.35-1.19.86-1.55,1.53-.36.67-.53,1.47-.53,2.41v3.76h-3.15c-.29,0-.53.04-.7.11-.17.07-.36.2-.57.39l-3.47,3.11v-2.73c0-.3-.08-.52-.24-.66-.16-.14-.36-.21-.59-.21h-1.13c-.9,0-1.6-.24-2.11-.73s-.76-1.21-.76-2.16v-6.27c0-.95.25-1.67.76-2.16.51-.49,1.21-.73,2.11-.73h10.27c.9,0,1.6.24,2.11.73.51.49.76,1.21.76,2.16v1.05ZM25.87,9.56l.59-1.02c.11-.19.31-.29.51-.29.34,0,.59.29.59.59,0,.09-.02.2-.08.29l-.59,1.02c-.11.19-.31.29-.51.29-.34,0-.59-.29-.59-.59,0-.09.02-.2.08-.29ZM23.43,8.04c0-.33.26-.59.59-.59s.59.26.59.59v1.18c0,.33-.26.59-.59.59s-.59-.26-.59-.59v-1.18ZM21.08,8.25c.2,0,.4.11.51.29l.59,1.02c.06.09.08.2.08.29,0,.29-.25.59-.59.59-.2,0-.4-.11-.51-.29l-.59-1.02c-.06-.09-.08-.2-.08-.29,0-.29.25-.59.59-.59ZM24.01,18.51c-2.27,0-4.12-1.85-4.12-4.12s1.85-4.12,4.12-4.12,4.12,1.85,4.12,4.12-1.85,4.12-4.12,4.12Z"/>
      </g>
    </g>
  </g>
</svg>