<?xml version="1.0" encoding="UTF-8"?>
<svg id="Layer_2" data-name="Layer 2" xmlns="http://www.w3.org/2000/svg" viewBox="0 0 21.93 25.07">
  <defs>
    <style>
      .cls-1 {
        fill: #8e8e93;
        stroke-width: 0px;
      }
    </style>
  </defs>
  <g id="Layer_1-2" data-name="Layer 1">
    <g>
      <path class="cls-1" d="M1.57,0h18.8c.88,0,1.57.69,1.57,1.57v21.93c0,.88-.69,1.57-1.57,1.57H1.57c-.88,0-1.57-.69-1.57-1.57V1.57C0,.69.69,0,1.57,0ZM3.19,23.06h15.55c.55,0,1-.45,1-1V3c0-.55-.45-1-1-1H3.19c-.55,0-1,.45-1,1v19.06c0,.55.45,1,1,1Z"/>
      <path class="cls-1" d="M6.82,10.57c-.86,0-1.55-.7-1.55-1.55s.7-1.55,1.55-1.55,1.55.7,1.55,1.55-.7,1.55-1.55,1.55ZM10.97,10.5c-.86,0-1.55-.7-1.55-1.55s.7-1.55,1.55-1.55,1.55.7,1.55,1.55-.7,1.55-1.55,1.55ZM15.11,10.5c-.86,0-1.55-.7-1.55-1.55s.7-1.55,1.55-1.55,1.55.7,1.55,1.55-.7,1.55-1.55,1.55Z"/>
      <path class="cls-1" d="M5.98,13.79c.31,0,.6.2.68.53.48,1.71,2.19,3.04,4.3,3.04s3.82-1.32,4.3-3.04c.08-.33.37-.53.68-.53.44,0,.71.36.71.71,0,.06-.01.13-.03.18-.67,2.38-2.98,4.09-5.67,4.09s-5-1.71-5.67-4.09c-.02-.06-.03-.13-.03-.18,0-.36.27-.71.71-.71Z"/>
    </g>
  </g>
</svg>