<?xml version="1.0" encoding="UTF-8"?>
<svg id="Layer_2" data-name="Layer 2" xmlns="http://www.w3.org/2000/svg" viewBox="0 0 756.48 474.87">
  <defs>
    <style>
      .cls-1 {
        stroke-width: 0px;
      }
    </style>
  </defs>
  <g id="_4_Layer" data-name="4 – Layer">
    <g>
      <path class="cls-1" d="M439.7,306.56h-27.65c-8.82,0-13.22,4.51-13.22,13.52v27.35c0,9.02,4.41,13.52,13.22,13.52h27.65c7.47,0,13.52-6.06,13.52-13.52v-27.35c0-7.47-6.06-13.52-13.52-13.52Z"/>
      <path class="cls-1" d="M315.58,209.78h27.35c7.46,0,13.52,6.06,13.52,13.52v27.35c0,7.46-6.06,13.52-13.52,13.52h-27.35c-7.46,0-13.53-6.06-13.53-13.53v-27.35c0-7.46,6.06-13.52,13.52-13.52Z"/>
      <path class="cls-1" d="M315.58,306.56h27.35c7.46,0,13.52,6.06,13.52,13.52v27.35c0,7.46-6.06,13.52-13.52,13.52h-27.35c-7.46,0-13.53-6.06-13.53-13.53v-27.35c0-7.46,6.06-13.52,13.52-13.52Z"/>
      <path class="cls-1" d="M495.31,322.79v21.64c0,9.13,7.4,16.53,16.53,16.53h118.42c10.82,0,16.23-5.51,16.23-16.53v-21.64c0-8.96-7.27-16.23-16.23-16.23h-118.42c-11.02,0-16.53,5.41-16.53,16.23Z"/>
      <path class="cls-1" d="M508.83,209.78c-7.47,0-13.53,6.06-13.53,13.53v27.35c0,7.47,6.06,13.52,13.52,13.52h27.65c8.81,0,13.22-4.51,13.22-13.52v-27.35c0-9.02-4.41-13.52-13.22-13.52h-27.65Z"/>
      <path class="cls-1" d="M630.25,264.18c8.96,0,16.23-7.27,16.23-16.23v-118.42c0-11.02-5.41-16.53-16.23-16.53h-21.64c-9.13,0-16.53,7.4-16.53,16.53v118.42c0,10.82,5.51,16.23,16.53,16.23h21.64Z"/>
      <path class="cls-1" d="M453.23,223.31c0-7.47-6.06-13.52-13.52-13.52h-27.65c-8.82,0-13.22,4.51-13.22,13.52v27.35c0,9.02,4.41,13.52,13.22,13.52h27.65c7.47,0,13.52-6.06,13.52-13.52v-27.35Z"/>
      <path class="cls-1" d="M163.2,126.53c0-7.47-6.06-13.52-13.52-13.52h-27.65c-8.82,0-13.22,4.51-13.22,13.52v27.65c0,7.3,5.92,13.22,13.22,13.22h27.65c9.02,0,13.52-4.4,13.52-13.22v-27.65Z"/>
      <path class="cls-1" d="M163.2,223.31c0-7.47-6.06-13.52-13.52-13.52h-27.65c-8.82,0-13.22,4.51-13.22,13.52v27.35c0,9.02,4.4,13.52,13.22,13.52h27.65c7.47,0,13.52-6.06,13.52-13.52v-27.35Z"/>
      <path class="cls-1" d="M732.74,23.29c-15.83-15.52-39.37-23.29-70.63-23.29h-55.9c-8.76,0-15.86,7.1-15.86,15.86v16.67c0,8.76,7.1,15.86,15.86,15.86h55c14.83,0,26.34,3.96,34.56,11.87,8.21,7.92,12.32,19.69,12.32,35.32v283.42c0,15.63-4.11,27.45-12.32,35.46-8.22,8.02-19.74,12.02-34.56,12.02H94.97c-15.03,0-26.55-4.01-34.56-12.02-8.02-8.01-12.02-19.84-12.02-35.46V95.58c0-15.63,4.01-27.4,12.02-35.32,8.01-7.91,19.54-11.87,34.56-11.87h55.3c8.76,0,15.86-7.1,15.86-15.86V15.86c0-8.76-7.1-15.86-15.86-15.86h-55.9C62.91,0,39.32,7.77,23.59,23.29,7.86,38.82,0,62.02,0,92.87v288.83c0,31.06,7.86,54.35,23.59,69.88,15.73,15.53,39.32,23.29,70.78,23.29h567.74c31.26,0,54.8-7.81,70.63-23.44,15.83-15.63,23.74-38.87,23.74-69.73V92.87c0-30.85-7.92-54.05-23.74-69.58Z"/>
      <path class="cls-1" d="M149.67,306.56h-27.65c-7.3,0-13.22,5.92-13.22,13.22v27.65c0,9.02,4.4,13.53,13.22,13.53h27.65c7.47,0,13.52-6.06,13.52-13.52v-27.65c0-8.81-4.51-13.22-13.52-13.22Z"/>
      <path class="cls-1" d="M259.68,223.31c0-9.02-4.41-13.52-13.22-13.52h-27.65c-7.47,0-13.52,6.06-13.52,13.52v27.35c0,7.47,6.06,13.52,13.52,13.52h27.65c8.81,0,13.22-4.51,13.22-13.52v-27.35Z"/>
      <path class="cls-1" d="M218.8,360.96h27.65c8.81,0,13.22-4.51,13.22-13.52v-27.35c0-9.02-4.41-13.52-13.22-13.52h-27.65c-7.47,0-13.52,6.06-13.52,13.52v27.35c0,7.47,6.06,13.52,13.52,13.52Z"/>
    </g>
  </g>
</svg>