<?xml version="1.0" encoding="UTF-8"?>
<svg id="Layer_2" data-name="Layer 2" xmlns="http://www.w3.org/2000/svg" viewBox="0 0 386.15 441.31">
  <defs>
    <style>
      .cls-1 {
        stroke-width: 0px;
      }
    </style>
  </defs>
  <g id="_4_Layer" data-name="4 – Layer">
    <g>
      <path class="cls-1" d="M110.21,84.27h165.73c6.63,0,11.84,5.21,11.84,11.84v82.87c0,6.63-5.21,11.84-11.84,11.84h-71.03v82.87c0,6.63-5.21,11.84-11.84,11.84s-11.84-5.21-11.84-11.84v-82.87h-71.03c-6.63,0-11.84-5.21-11.84-11.84v-82.87c0-6.63,5.21-11.84,11.84-11.84ZM122.05,107.94v59.19h59.19v-59.19h-59.19ZM264.1,167.13v-59.19h-59.19v59.19h59.19Z"/>
      <path class="cls-1" d="M27.58,0h330.98c15.23,0,27.58,12.35,27.58,27.58v386.15c0,15.23-12.35,27.58-27.58,27.58H27.58c-15.23,0-27.58-12.35-27.58-27.58V27.58C0,12.35,12.35,0,27.58,0ZM59.48,399.33h267.18c8.45,0,15.3-6.85,15.3-15.3V57.29c0-8.45-6.85-15.3-15.3-15.3H59.48c-8.45,0-15.3,6.85-15.3,15.3v326.74c0,8.45,6.85,15.3,15.3,15.3ZM129.46,366.78c-16.35,2.11-30.27-11.81-28.16-28.16,1.44-11.18,10.41-20.15,21.6-21.59,16.35-2.1,30.26,11.81,28.16,28.16-1.44,11.18-10.41,20.15-21.59,21.59ZM196.36,365.53c-16.35,2.11-30.27-11.81-28.16-28.16,1.44-11.18,10.42-20.15,21.6-21.59,16.35-2.1,30.26,11.81,28.15,28.16-1.44,11.18-10.41,20.15-21.59,21.59ZM263.26,365.53c-16.35,2.11-30.27-11.81-28.16-28.16,1.44-11.18,10.41-20.15,21.6-21.59,16.35-2.1,30.26,11.81,28.16,28.16-1.44,11.18-10.41,20.15-21.59,21.59Z"/>
    </g>
  </g>
</svg>