<?xml version="1.0" encoding="UTF-8"?>
<svg id="Layer_2" data-name="Layer 2" xmlns="http://www.w3.org/2000/svg" viewBox="0 0 14.1 24.68">
  <defs>
    <style>
      .cls-1 {
        fill: #231f20;
        stroke-width: 0px;
      }
    </style>
  </defs>
  <g id="Layer_1-2" data-name="Layer 1">
    <g>
      <path class="cls-1" d="M2.79,19.85c0-.33.13-.65.38-.91l2.62-2.62v-2.47c0-.71.55-1.26,1.26-1.26s1.26.55,1.26,1.26v2.47l2.62,2.62c.25.25.38.58.38.91,0,.68-.58,1.26-1.26,1.26-.33,0-.66-.13-.91-.38l-.83-.86v3.55c0,.71-.55,1.26-1.26,1.26s-1.26-.55-1.26-1.26v-3.55l-.83.86c-.25.25-.58.38-.91.38-.68,0-1.26-.58-1.26-1.26Z"/>
      <path class="cls-1" d="M14.1,1.26c0,.43-.23.88-.63,1.11l-5.79,3.27c-.2.1-.43.15-.63.15s-.43-.05-.63-.15L.63,2.37c-.4-.23-.63-.68-.63-1.11C0,.5.63,0,1.26,0c.2,0,.43.05.63.15l5.16,2.95L12.21.15c.2-.1.43-.15.63-.15.63,0,1.26.5,1.26,1.26ZM0,10.83c0-.43.23-.88.63-1.11l5.79-3.27c.2-.1.43-.15.63-.15s.43.05.63.15l5.79,3.27c.4.23.63.68.63,1.11,0,.76-.63,1.26-1.26,1.26-.2,0-.43-.05-.63-.15l-5.16-2.95-5.16,2.95c-.2.1-.43.15-.63.15-.63,0-1.26-.5-1.26-1.26Z"/>
    </g>
  </g>
</svg>