<?xml version="1.0" encoding="UTF-8"?>
<svg id="Layer_2" data-name="Layer 2" xmlns="http://www.w3.org/2000/svg" viewBox="0 0 21.93 25.07">
  <defs>
    <style>
      .cls-1 {
        fill: #8e8e93;
        stroke-width: 0px;
      }
    </style>
  </defs>
  <g id="Layer_1-2" data-name="Layer 1">
    <g>
      <g>
        <path class="cls-1" d="M1.57,0h18.8c.88,0,1.57.69,1.57,1.57v21.93c0,.88-.69,1.57-1.57,1.57H1.57c-.88,0-1.57-.69-1.57-1.57V1.57C0,.69.69,0,1.57,0ZM3.19,23.06h15.55c.55,0,1-.45,1-1V3c0-.55-.45-1-1-1H3.19c-.55,0-1,.45-1,1v19.06c0,.55.45,1,1,1Z"/>
        <path class="cls-1" d="M6.82,9.21c-.86,0-1.55-.7-1.55-1.55s.7-1.55,1.55-1.55,1.55.7,1.55,1.55-.7,1.55-1.55,1.55ZM10.97,9.14c-.86,0-1.55-.7-1.55-1.55s.7-1.55,1.55-1.55,1.55.7,1.55,1.55-.7,1.55-1.55,1.55ZM15.11,9.14c-.86,0-1.55-.7-1.55-1.55s.7-1.55,1.55-1.55,1.55.7,1.55,1.55-.7,1.55-1.55,1.55Z"/>
      </g>
      <path class="cls-1" d="M4.79,16.82v-1.07c0-1.61,1.29-2.9,2.9-2.9h6.56c1.61,0,2.9,1.29,2.9,2.9v1.07c0,1.61-1.29,2.9-2.9,2.9h-6.56c-1.61,0-2.9-1.29-2.9-2.9ZM7.69,18.34h6.56c.84,0,1.52-.69,1.52-1.52v-1.07c0-.84-.69-1.52-1.52-1.52h-6.56c-.84,0-1.52.69-1.52,1.52v1.07c0,.84.69,1.52,1.52,1.52Z"/>
    </g>
  </g>
</svg>