<?xml version="1.0" encoding="UTF-8"?>
<svg id="Layer_2" data-name="Layer 2" xmlns="http://www.w3.org/2000/svg" viewBox="0 0 19.37 24.67">
  <defs>
    <style>
      .cls-1 {
        fill: #231f20;
        stroke-width: 0px;
      }
    </style>
  </defs>
  <g id="Layer_1-2" data-name="Layer 1">
    <g>
      <path class="cls-1" d="M18.4,18.98c.21-.21.43-.48.64-.81.21-.32.32-.77.32-1.35V3.62c0-1.2-.3-2.1-.89-2.71-.6-.61-1.49-.91-2.68-.91H3.57C2.38,0,1.49.3.89.9c-.59.6-.89,1.51-.89,2.71v17.5c0,1.18.3,2.07.89,2.67.59.59,1.47.89,2.65.89h14.91c.25,0,.47-.09.65-.27.18-.18.27-.4.27-.65,0-.2-.06-.38-.18-.55-.12-.17-.28-.28-.46-.34-.48-.19-.83-.5-1.04-.94-.21-.43-.26-.91-.16-1.44.11-.53.4-1.03.88-1.51ZM2.64,2.44c0-.18.07-.34.2-.47.13-.13.28-.19.46-.19s.33.06.47.19c.13.13.2.28.2.47v14.54c0,.18-.07.34-.2.47-.13.13-.29.2-.47.2s-.33-.07-.46-.2c-.13-.13-.2-.29-.2-.47V2.44ZM3.64,22.82c-.58,0-1.03-.15-1.33-.45-.3-.3-.45-.72-.45-1.27,0-.51.17-.93.51-1.24.34-.31.8-.47,1.38-.47h11.81c.15,0,.28-.01.4-.03-.27.6-.39,1.2-.35,1.8.03.6.21,1.15.51,1.65H3.64ZM16.24,14.27c0,.38-.3.68-.68.68H7.34c-.38,0-.68-.3-.68-.68V4.68c0-.38.3-.68.68-.68h8.21c.38,0,.68.3.68.68v9.58Z"/>
      <path class="cls-1" d="M14.53,5.36h-6.08c-.22,0-.39.17-.39.39v7.45c0,.22.17.39.39.39h6.08c.22,0,.39-.17.39-.39v-7.45c0-.22-.17-.39-.39-.39ZM13.31,7.23c.37,0,.68.31.68.68s-.31.68-.68.68-.68-.31-.68-.68.31-.68.68-.68ZM11.49,7.23c.37,0,.68.31.68.68s-.31.68-.68.68-.68-.31-.68-.68.31-.68.68-.68ZM9.68,7.26c.37,0,.68.31.68.68s-.31.68-.68.68-.68-.31-.68-.68.31-.68.68-.68ZM14.23,10.31l-.02.11c-.33,1.17-1.45,1.98-2.72,1.98s-2.39-.81-2.72-1.97v-.03s-.02-.12-.02-.12c0-.31.25-.56.56-.56.26,0,.47.17.54.41.19.67.86,1.14,1.64,1.14s1.45-.47,1.64-1.15c.06-.24.28-.41.54-.41.31,0,.56.25.56.56v.03Z"/>
    </g>
  </g>
</svg>