<?xml version="1.0" encoding="UTF-8"?>
<svg id="Layer_2" data-name="Layer 2" xmlns="http://www.w3.org/2000/svg" viewBox="0 0 18.91 25.45">
  <defs>
    <style>
      .cls-1 {
        fill: #8e8e93;
        stroke-width: 0px;
      }
    </style>
  </defs>
  <g id="Layer_1-2" data-name="Layer 1">
    <g>
      <path class="cls-1" d="M6.16,22.41c-1.17,0-2.12-.94-2.12-2.12s.94-2.12,2.12-2.12c.19,0,.39.02.57.07l1.25-2.14c-.39-.39-.64-.92-.64-1.51,0-1.17.94-2.12,2.12-2.12s2.12.94,2.12,2.12c0,.59-.25,1.12-.64,1.51l1.25,2.14c.18-.05.37-.07.57-.07,1.17,0,2.12.94,2.12,2.12s-.94,2.12-2.12,2.12c-1.02,0-1.86-.71-2.07-1.67h-2.44c-.21.96-1.05,1.67-2.07,1.67ZM6.16,19.39c-.5,0-.91.41-.91.91s.41.91.91.91.91-.41.91-.91-.41-.91-.91-.91ZM9.45,16.72c-.15,0-.28-.01-.41-.04l-1.28,2.23c.16.18.29.4.37.63h2.64c.08-.23.22-.45.37-.63l-1.28-2.23c-.13.02-.27.04-.41.04ZM9.45,13.7c-.5,0-.91.41-.91.91s.41.91.91.91.91-.41.91-.91-.41-.91-.91-.91ZM13.65,20.3c0-.5-.41-.91-.91-.91s-.91.41-.91.91.41.91.91.91.91-.41.91-.91Z"/>
      <path class="cls-1" d="M1.58,2.11c.54,0,1.07.28,1.36.79l1.58,2.74c.16.25.22.5.22.79,0,.79-.66,1.58-1.58,1.58-.54,0-1.07-.28-1.36-.79L.22,4.47c-.16-.25-.22-.5-.22-.79,0-.79.66-1.57,1.58-1.57ZM2.84,9.45h13.24c.88,0,1.58.69,1.58,1.58v12.84c0,.88-.69,1.58-1.58,1.58H2.84c-.88,0-1.58-.69-1.58-1.58v-12.84c0-.88.69-1.58,1.58-1.58ZM3.57,23.8h11.76c.3,0,.54-.24.54-.54v-11.62c0-.3-.24-.54-.54-.54H3.57c-.3,0-.54.24-.54.54v11.62c0,.3.24.54.54.54ZM11.03,1.58v3.15c0,.88-.69,1.58-1.58,1.58s-1.58-.69-1.58-1.58V1.58c0-.88.69-1.58,1.58-1.58s1.58.69,1.58,1.58ZM18.91,3.69c0,.28-.06.54-.22.79l-1.58,2.74c-.28.5-.82.79-1.36.79-.91,0-1.58-.79-1.58-1.58,0-.28.06-.53.22-.79l1.58-2.74c.28-.5.82-.79,1.36-.79.91,0,1.58.79,1.58,1.57Z"/>
    </g>
  </g>
</svg>